<?xml version='1.0' encoding='utf-8'?>
<svg xmlns="http://www.w3.org/2000/svg" version="1.1" viewBox="0 0 298.64 346.35"> <defs> <filter id="a" x="-.13212" y="-.10992" width="1.2642" height="1.2198" color-interpolation-filters="sRGB"> <feGaussianBlur stdDeviation="39.299999"/> </filter> </defs> <g transform="translate(-39.865 -17.572)"> <g transform="matrix(.33089 0 0 .33089 -288.76 108.32)"> <path d="m1698.2-179.93-610.72 285.75 39.625 84.75v450.44c0 20.577 16.548 37.156 37.125 37.156h600c20.577 0 37.156-16.579 37.156-37.156v-451.41c0-20.577-16.579-37.156-37.156-37.156h-553.94l527.88-246.97-39.969-85.406z" filter="url(#a)"/> <rect x="1120" y="166.65" width="674.29" height="525.71" ry="26.674"/> <rect transform="matrix(.90575 -.42381 .42381 .90575 0 0)" x="927.67" y="566.59" width="674.29" height="94.286" ry="0"/> <rect transform="matrix(.99964 -.026917 -.61011 .79232 0 0)" x="1540" y="267.03" width="37.943" height="111.92" fill="#fff" opacity=".7"/> <rect transform="matrix(.99964 -.026917 -.61011 .79232 0 0)" x="1627.8" y="270.01" width="37.943" height="111.92" fill="#fff" opacity=".7"/> <rect transform="matrix(.99964 -.026917 -.61011 .79232 0 0)" x="1733.8" y="273.62" width="37.943" height="111.92" fill="#fff" opacity=".7"/> <rect transform="matrix(.99964 -.026917 -.61011 .79232 0 0)" x="1834.9" y="276.59" width="37.943" height="111.92" fill="#fff" opacity=".7"/> <rect transform="matrix(.99964 -.026917 -.61011 .79232 0 0)" x="1908.6" y="280.2" width="37.943" height="111.92" fill="#fff" opacity=".7"/> <rect transform="matrix(-.91118 .412 .88255 .47022 0 0)" x="-1109.2" y="692.95" width="38.989" height="115.21" fill="#fff" opacity=".7"/> <rect transform="matrix(-.91118 .412 .88255 .47022 0 0)" x="-1035.7" y="694.05" width="38.989" height="115.21" fill="#fff" opacity=".7"/> <rect transform="matrix(-.91118 .412 .88255 .47022 0 0)" x="-931.03" y="696.46" width="38.989" height="115.21" fill="#fff" opacity=".7"/> <rect transform="matrix(-.91118 .412 .88255 .47022 0 0)" x="-807.17" y="696.97" width="38.989" height="115.21" fill="#fff" opacity=".7"/> <rect transform="matrix(-.91118 .412 .88255 .47022 0 0)" x="-725.99" y="700.88" width="38.989" height="115.21" fill="#fff" opacity=".7"/> <rect x="1172.7" y="286.48" width="577.55" height="65.288" ry="20.089" fill="#fff" opacity=".66071"/> <g transform="matrix(.93178 0 0 .8091 756.95 136.83)" fill="none" stroke="#fff" stroke-width="2.3034"> <g transform="translate(.16575)"> <rect x="464.55" y="311.6" width="218.46" height="77.843" ry="0"/> <rect x="680.5" y="311.6" width="359.08" height="77.843" ry="0"/> <rect x="464.55" y="390.88" width="218.46" height="77.843" ry="0"/> <rect x="680.5" y="390.88" width="359.08" height="77.843" ry="0"/> </g> <rect x="464.55" y="468.73" width="218.46" height="77.843" ry="0"/> <rect x="683.01" y="468.73" width="218.46" height="77.843" ry="0"/> <rect x="898.96" y="469.24" width="141.05" height="77.843" ry="0"/> <g transform="translate(0 75.332)"> <rect x="464.55" y="468.73" width="218.46" height="77.843" ry="0"/> <rect x="683.01" y="468.73" width="218.46" height="77.843" ry="0"/> <rect x="898.96" y="469.24" width="141.05" height="77.843" ry="0"/> </g> </g> <g transform="translate(-10.654)" fill="#fff"> <path transform="translate(328.95 -11.3)" d="m841.21 219.94c0 7.6276-6.1834 13.811-13.811 13.811s-13.811-6.1834-13.811-13.811 6.1834-13.811 13.811-13.811 13.811 6.1834 13.811 13.811z" opacity=".7"/> <path transform="translate(371.64 -11.3)" d="m841.21 219.94c0 7.6276-6.1834 13.811-13.811 13.811s-13.811-6.1834-13.811-13.811 6.1834-13.811 13.811-13.811 13.811 6.1834 13.811 13.811z" opacity=".7"/> </g> <path transform="translate(339.64 -67.799)" d="m841.21 219.94c0 7.6276-6.1834 13.811-13.811 13.811s-13.811-6.1834-13.811-13.811 6.1834-13.811 13.811-13.811 13.811 6.1834 13.811 13.811z" fill="#fff" opacity=".7"/> </g> </g> </svg>